<?xml version="1.0" encoding="UTF-8"?>
<!DOCTYPE svg PUBLIC "-//W3C//DTD SVG 1.1//EN" "http://www.w3.org/Graphics/SVG/1.1/DTD/svg11.dtd">
<!-- Creator: CorelDRAW 2020 (64-Bit) -->
<svg xmlns="http://www.w3.org/2000/svg" xml:space="preserve" width="2126px" height="709px" version="1.1" shape-rendering="geometricPrecision" text-rendering="geometricPrecision" image-rendering="optimizeQuality" fill-rule="evenodd" clip-rule="evenodd"
viewBox="0 0 2126 708.67"
 xmlns:xlink="http://www.w3.org/1999/xlink"
 xmlns:xodm="http://www.corel.com/coreldraw/odm/2003">
 <g id="Capa_x0020_1">
  <metadata id="CorelCorpID_0Corel-Layer"/>
  <g id="_2867919194032">
   <path  fill-rule="nonzero" d="M838.28 451.21l33 0 0 128.28 26.11 0 0 38.63 -59.11 0 0 -166.91zm183.07 166.91l-34.3 0 -5.54 -27.87 -34.81 0 -5.8 27.87 -33.62 0 38.53 -166.91 37.01 0 38.53 166.91 0 0zm-46.15 -57.87c-4.94,-24.84 -8.62,-48.48 -11.11,-70.94l-0.42 0c-2.63,23.1 -6.27,46.74 -10.99,70.94l22.52 0zm41.39 -109.04l34.37 0 17.98 73.75c3.42,14.59 5.72,27.05 6.94,37.38l0.46 0c1.07,-9.09 2.29,-16.51 3.6,-22.36l20.03 -88.77 35.25 0 -43.65 166.91 -30.58 0 -44.4 -166.91 0 0zm229.77 166.91l-34.3 0 -5.53 -27.87 -34.82 0 -5.79 27.87 -33.63 0 38.53 -166.91 37.01 0 38.53 166.91 0 0zm-46.16 -57.87c-4.93,-24.84 -8.61,-48.48 -11.1,-70.94l-0.41 0c-2.64,23.1 -6.28,46.74 -11,70.94l22.51 0zm62.84 -109.04l33.29 0 41.91 96.28 -1.18 -18.01 0 -78.27 32.99 0 0 166.91 -33.85 0 -41.06 -94.79 0.89 20.79 0 74 -32.99 0 0 -166.91 0 0zm138.26 0l30.8 0c21.32,0 37.56,6.95 48.68,20.96 11.06,13.95 16.63,34.35 16.63,61.19 0,20.32 -2.74,36.75 -8.21,49.25 -5.49,12.5 -13.15,21.56 -22.96,27.14 -9.85,5.59 -20.73,8.37 -32.62,8.37l-32.32 0 0 -166.91 0 0zm32.99 35.51l0 95.77c9.99,-0.99 17.09,-5.09 21.21,-12.21 4.13,-7.13 6.21,-18.87 6.21,-35.16 0,-9.7 -0.75,-17.89 -2.19,-24.59 -1.45,-6.7 -3.61,-11.86 -6.47,-15.49 -2.85,-3.63 -5.64,-5.85 -8.39,-6.7 -2.71,-0.86 -6.17,-1.37 -10.37,-1.62zm85.35 -35.51l66.73 0 0 35.51 -33.74 0 0 30.76 29.28 0 0 34.62 -29.28 0 0 30.39 33.96 0 0 35.63 -66.95 0 0 -166.91 0 0zm92.96 0l38.42 0c15.53,0 27.79,4.56 36.78,13.74 9.03,9.17 13.53,21.63 13.53,37.39 0,8.1 -1.71,15.92 -5.13,23.42 -3.42,7.56 -8.4,13.24 -14.9,17.07l26.34 75.29 -34.85 0 -26.67 -76.01 -0.53 0 0 76.01 -32.99 0 0 -166.91 0 0zm32.99 32.26l0 39.61c14.57,-0.3 21.89,-6.19 21.89,-17.63 0,-7.72 -1.71,-13.27 -5.09,-16.6 -3.34,-3.33 -8.95,-5.12 -16.8,-5.38zm81.86 -32.26l32.99 0 0 166.91 -32.99 0 0 -166.91zm166.87 166.91l-34.3 0 -5.54 -27.87 -34.81 0 -5.8 27.87 -33.62 0 38.53 -166.91 37 0 38.54 166.91zm-46.15 -57.87c-4.94,-24.84 -8.62,-48.48 -11.12,-70.94l-0.41 0c-2.63,23.1 -6.27,46.74 -10.99,70.94l22.52 0 0 0z"/>
   <path  fill-rule="nonzero" d="M868 318.8l67.11 0 0 56.16 -102.16 0 0 -288.56 35.05 0 0 232.4zm180.8 -232.4l68.26 288.56 -37.82 0 -14.76 -61.86 -69.41 0 -14.53 61.86 -38.05 0 68.26 -288.56 38.05 0zm2.54 170.53l-21.45 -90.76 -21.45 90.76 42.9 0zm188.4 -170.53l38.05 0 -68.95 288.56 -38.51 0 -68.72 -288.56 38.05 0 50.04 215.71 50.04 -215.71zm128.91 0l68.26 288.56 -37.82 0 -14.76 -61.86 -69.41 0 -14.53 61.86 -38.05 0 68.26 -288.56 38.05 0zm2.53 170.53l-21.44 -90.76 -21.45 90.76 42.89 0zm81.64 -170.53l102.16 0 0 56.17 -67.11 0 0 52.09 59.04 0 0 56.17 -59.04 0 0 124.13 -35.05 0 0 -288.56zm194.4 0l68.26 288.56 -37.82 0 -14.76 -61.86 -69.41 0 -14.53 61.86 -38.05 0 68.26 -288.56 38.05 0zm2.54 170.53l-21.45 -90.76 -21.45 90.76 42.9 0zm147.12 61.87c7.38,0 14.61,-2.99 21.68,-8.96 7.07,-5.97 14.22,-16 21.45,-30.11l22.6 37.85c-9.07,20.62 -19.41,36.22 -31.02,46.8 -11.61,10.58 -23.56,15.87 -35.86,15.87 -11.07,0 -21.45,-4 -31.13,-12 -9.69,-8.01 -18.1,-18.79 -25.25,-32.36 -7.15,-13.56 -12.76,-29.37 -16.84,-47.41 -4.07,-18.05 -6.11,-37.24 -6.11,-57.59 0,-20.35 2.12,-39.48 6.34,-57.39 4.23,-17.91 9.96,-33.64 17.18,-47.21 7.23,-13.57 15.76,-24.28 25.6,-32.15 9.84,-7.87 20.29,-11.81 31.36,-11.81 10.3,0 20.1,3.4 29.41,10.18 9.3,6.78 18.4,18.04 27.32,33.78l-20.29 43.55c-6.46,-10.58 -12.57,-17.71 -18.33,-21.37 -5.77,-3.66 -11.8,-5.49 -18.11,-5.49 -6.3,0 -12.26,2.3 -17.87,6.91 -5.61,4.62 -10.49,10.86 -14.64,18.73 -4.15,7.87 -7.42,17.16 -9.8,27.88 -2.39,10.71 -3.58,22.18 -3.58,34.39 0,12.21 1.19,23.6 3.58,34.18 2.38,10.59 5.65,19.88 9.8,27.88 4.15,8.01 9.03,14.32 14.64,18.93 5.61,4.61 11.57,6.92 17.87,6.92zm142.75 -232.4l0 52.1 -12.22 0 0 184.77 12.22 0 0 51.69 -59.5 0 0 -51.69 12.22 0 0 -184.77 -12.22 0 0 -52.1 59.5 0zm56.5 232.4l67.1 0 0 56.16 -102.16 0 0 -288.56 35.06 0 0 232.4z"/>
   <path  d="M406.99 438.04c-4.32,1.87 -15.38,16.47 -30.56,10.38 -11.5,-4.61 -11.65,-22.26 -2.19,-28.71 5.61,-3.8 29.34,-7.51 28.37,-14.63 -0.87,-6.42 -12.78,-2.66 -16.2,-0.85 -5.7,3.04 -7.12,9.78 -13.94,8.9 -21.83,-2.84 21.72,-41.33 45.89,-23.46 5.81,4.3 6.44,25.02 9.07,34.46 1.89,6.77 2.35,13.41 -3.14,16 -9.32,4.41 -12.81,-1.63 -17.3,-2.09l0 0zm-69.01 -41.81l18.84 0.06c0.19,3.07 1.5,11.33 0.09,13.61l-9.89 1.93c0.3,9.49 6.67,35.7 1.91,41.77 -3.91,5.29 -19.95,7.13 -22.73,-8.31 -1.66,-9.18 -2.35,-26.52 -4.3,-33.4 -8.1,-3.69 -12.85,1.55 -12.06,-12.92l10.03 -2.04c0.13,-6.32 -0.45,-15.63 4.17,-18.5 10.69,-6.63 37.34,-6.79 29.17,9.22 -3.74,7.31 -15.72,-1.43 -15.23,8.58zm124.55 -10.35c-10.68,3.13 -11.24,26.9 1.1,28.57 10.83,1.47 9.61,-4.99 13.03,-9.04 3.75,-4.44 13.01,-4.41 15.36,0.65 8.95,19.21 -41.89,35.81 -55.9,17.3 -17.03,-22.51 2.69,-51.49 23.22,-55.13 12.01,-2.14 31.85,-1.34 32.93,11.18 1.56,18.04 -24.15,4.84 -29.74,6.47zm-81.5 -0.32c-2.08,-9.54 1.63,-7.61 6.93,-14.42 1.57,-2 9.14,-10.87 14.87,-5.44 2.71,2.56 0.08,6.49 -1.32,8.1 -7.37,8.52 -8.9,14.73 -20.48,11.76l0 0zm123.68 33.34c-5.05,-6.64 -5.21,-21.59 -6.64,-31.75 -2.02,-14.45 -8.05,-23.81 6.97,-25.46 17.06,-1.87 13.49,7.68 15.55,22.77 1.07,7.91 6.67,27.06 3.49,32.81l-19.37 1.63zm45.11 -76.49c3.21,13.77 4.5,29.71 6.99,44.35 2.54,14.95 10.07,34.74 -12.3,32.25 -11.83,-1.31 -11.19,-27.85 -12.81,-38.83 -1.4,-9.54 -10.66,-39.97 2.89,-39.97 8.38,0 7.99,0.86 15.23,2.2l0 0zm-47.47 -0.89c13.81,-3.81 15.96,15.56 5.14,17.49 -11.98,2.13 -21.64,-12.93 -5.14,-17.49zm-16.75 15.49c-16.57,0.21 -27.01,0.15 -41.38,6.07 -10.39,4.28 -16.2,20.84 -30.8,12.91 0.06,-8.01 3.21,-10.22 -3.1,-15.87 -17.31,-15.54 -40.54,12.53 -43.88,14.55 -2.97,-1.3 -6.95,-6.92 -13.01,-9 -3.68,-1.27 -16.89,-1 -21.48,-0.72 -15,0.91 -21.39,8.33 -21.39,23.96l-9.21 3.23 -0.6 21.85c11.44,8.57 11.04,0.79 13.24,18.45 3.97,31.86 5.67,37.92 30.68,34.57 5.25,-0.7 6.96,-2.41 10.97,-4.58 7.58,-4.09 2.42,-3.09 5.85,-10.44 40.96,14.29 20.21,6.72 60.58,-0.5 12.87,-2.29 9.82,-3.73 17.45,-8.03 10.63,-6 31.09,2.59 45.89,-3.6 7.18,-3.01 12.3,-9.28 14.82,-10.15 5.38,-1.84 18.43,0.47 24.97,-0.71 19.15,-3.46 29.67,3.29 42.45,-4.74 8.52,-5.36 0.03,-26.36 -1.52,-39.63 -4.82,-41.42 0.28,-49.72 -23.68,-52.09 -15.29,-1.52 -12.81,-0.03 -21.73,4.06 -7.06,-5.29 -17.53,-7.27 -27.76,-2.84 -11.65,5.05 -8.5,13.04 -7.36,23.25z"/>
   <path  d="M405.59 422.2c-10.39,-3.34 -29.46,4.05 -20.66,12.76 3.75,3.72 11.61,1.46 16.02,-0.36 6.99,-2.89 6.52,-4.36 4.64,-12.4zm-96.99 -109.69c4.62,0.47 16.27,-3.09 21.02,-4.67 -0.28,-2.02 -8.09,-25.71 -11.65,-27.5 -2.42,3.96 -9.24,27.37 -9.37,32.17zm234.4 -42.51c-1,-8.83 -4.91,-30.51 -11.86,-33.27 -1.82,5.29 -6.71,18.17 -8.05,23.41 -2.63,10.28 11.96,10.59 19.91,9.86zm-363.23 41.05c-1.5,23.5 -0.73,29.64 23.49,31.62 12.8,1.05 41.36,3.26 33.29,20.39 -9.14,19.39 -74.06,-4.36 -84.08,-16.09 -10.81,-12.65 -8.67,-83.19 -2.74,-101.29 6.42,-19.58 24.41,-3.96 28.23,12.56 3.61,15.61 2.87,36.34 1.81,52.81l0 0zm-28.85 -82.37c-21.65,9.43 -18.92,89.24 -13.66,113.7 3.72,17.3 16.87,26.3 35.82,30.43 17.56,3.81 41.59,9.89 60.82,6.81 17.68,-2.83 19.96,-29.91 4.45,-41.37 -13.91,-10.29 -45.68,-1.62 -48.08,-19.3 -2.75,-20.2 4.47,-42.24 -0.11,-64.11 -3.17,-15.1 -19.14,-34.91 -39.24,-26.16l0 0zm169.02 9.76c19.71,-4.85 24.4,18.57 29.91,32.83 5.88,15.21 13.61,29.82 18.71,44.57 7.56,21.88 -2.91,40.18 -21.85,25.82 -6.07,-4.61 -9.82,-13.42 -18.54,-12.73 -41.46,3.27 -31.04,48.2 -57.13,38.1 -15.09,-5.84 -0.74,-36.58 3.33,-47.16 5.88,-15.27 12.07,-30.08 18.08,-45.21 6.97,-17.52 8.95,-31.67 27.49,-36.22l0 0zm-1.33 -10.09c-35.57,6.07 -42.73,59.16 -55.14,93.42 -6.45,17.8 -19.82,41.9 -0.85,53.53 24.05,14.75 35.23,-5.52 43.74,-21.49 14.07,-26.42 32.43,4.77 49.14,4.64 21.85,-0.18 32.62,-21.99 25.1,-43.83 -10.35,-30.06 -25.61,-92.48 -61.99,-86.27l0 0zm205.97 -31.51c31.43,-7.35 41.44,55.84 50.21,81.92 3.56,10.58 18.47,42.47 7.55,49.41 -17.24,10.92 -24.8,-25.23 -31.27,-31.63 -4.73,-4.68 -17.59,-8.62 -26.42,-7.72 -12.66,1.28 -13.11,7.23 -17.9,16.13 -7.7,14.26 -36.72,12.87 -25.02,-18.06 6.12,-16.18 12.13,-31.75 18.65,-47.64 5.03,-12.26 11.81,-39.5 24.21,-42.41l-0.01 0zm0.68 -11.54c-19.47,3.58 -27.45,24.83 -34.01,43.85 -6.46,18.76 -15.51,38.63 -20.79,56.34 -7.63,25.51 4.89,46.41 29.92,35.86 16.2,-6.84 30.03,-39.67 44.88,-12.08 4.49,8.35 7.24,19.82 13.6,24.98 6.47,5.25 23.64,7.49 31.66,2.06 14.1,-9.55 0.31,-44.5 -3.58,-60.89 -8.32,-35.09 -16.07,-98.51 -61.68,-90.12l0 0zm-99.8 94.93c11.37,-5.25 14.05,-63.12 32.45,-78.51 8.52,-7.12 20.22,-3.16 20.08,9.38 -0.17,14.56 -32.23,95.92 -39.52,106.69 -14.85,21.93 -36.39,-8.12 -42.02,-17.96 -8.87,-15.46 -15.36,-34.11 -20.87,-52.31 -9.65,-31.87 20.96,-38.14 29.78,-19.9 6.26,12.98 11.95,44.65 20.1,52.61l0 0zm-1.65 -37.37c-11.32,-11.78 -4.97,-46.09 -40.72,-34.81 -26.12,8.24 -24.8,26.21 -14.33,50.23 13.06,29.95 29.91,102.82 73.68,73.37 12.74,-8.58 41.37,-89.15 47.1,-111.17 6.88,-26.42 -17.14,-43.81 -38.24,-30.31 -15.18,9.7 -19.68,48.51 -27.49,52.69z"/>
   <path  d="M262.86 634.96c-5.23,2.49 -2.54,7.43 -7.31,10.97 -3.17,2.35 -10.97,3.78 -13.01,-0.56 -2.35,-5.02 14.06,-50 17.01,-57.66 3.58,-9.33 13.98,-18.54 21.88,-8.79 4.2,5.19 17.62,43.91 21.11,53.19 6.23,16.61 -9.35,19.64 -14.78,12.46 -3.1,-4.11 -1.98,-8.73 -7.69,-10.33 -4.13,-1.15 -13.42,-1.09 -17.21,0.72l0 0zm-95.28 -58.79c2.93,3.75 24.59,61.97 21.58,68.61 -10.75,13.17 -14.89,-4.04 -18.55,-10.38 -31.26,-4.03 -21.8,6.22 -29.71,12.6 -4.05,3.25 -12.17,3.03 -13.75,-2.81 -0.89,-3.29 3.11,-13.42 4.28,-17.13 3.42,-10.82 7.3,-22.41 11.45,-32.87 6.03,-15.15 6.63,-20.17 24.7,-18.02l0 0zm458.35 70.31c-4.91,0.76 -9.77,1.39 -13.47,-2.51 -2.93,-10.2 17.07,-59.36 23.39,-68.8 23.71,-1.48 15.25,2.82 23.73,18.9 3.67,6.96 9.28,26.07 12.44,34.96 3.02,8.5 4.36,9.95 -1.38,16.71 -12.85,2.25 -12.4,-2.99 -15.97,-13.64l-23.27 -0.65c-2.07,5.05 -2.05,10.44 -5.47,15.03l0 0zm-553.9 -69.14c4.65,-1.38 6.87,-1.44 11.57,0.1 10.07,10.85 0.22,42.91 5.33,54.56 8.77,4.32 38.88,-7.28 28.63,15.38 -6.81,2.06 -21.72,1.22 -29.31,0.97 -13.9,-0.47 -16.94,2.5 -18.49,-12.41 -1.27,-12.29 -3.19,-48.79 2.27,-58.6zm318.35 -0.33c12.66,-5.29 42.81,-0.95 50.45,12.5 9.16,16.12 5.92,39.33 -7.73,50.89 -7.87,6.67 -16.86,6.37 -26.83,6.38 -30.75,0.03 -23.13,-2.23 -23.93,-43.65 -0.22,-11.18 -2.88,-21.57 8.03,-26.12l0.01 0zm-37.65 38.38c3.9,-10.55 -1.19,-22.4 0.78,-33.05 1.73,-9.28 15.85,-10.57 18.06,-0.61 2.13,9.61 0.45,55.45 -2.27,65.27 -20.61,14.22 -30.28,-34.46 -42.21,-37.82 -1.14,8.35 5.65,46.16 -11.88,39.08 -9.79,-3.95 -5.89,-38.72 -5.84,-48.41 0.02,-6.51 -1.58,-18.59 4.47,-22.5 2.39,-1.54 8.15,-2 10.81,-1.48 4.4,0.88 14.09,19.47 16.78,23.76l7.42 11.81c2.34,4.87 -0.08,2.95 3.88,3.95zm251.38 -38.14c2.72,10.57 2.7,31.93 2.75,43.44 0.02,5.45 0.34,17.34 -1.37,22.04 -2.08,5.68 -11.24,7.1 -14.84,2.56 -4.9,-6.2 -2.55,-32.88 -3.17,-42.45 -0.93,-14.47 -3.6,-32.48 16.63,-25.59zm-31.69 33.34c0.32,1.88 11.16,32.43 0.16,37.51 -12.35,2.01 -13.12,-8.19 -14.15,-18.44 -0.52,-5.09 -0.74,-8.3 -6.03,-9.42 -3.84,-0.82 -10.91,-0.88 -14.4,0.78 -1.43,6.61 0.42,14.49 -1.99,21 -2.6,7.08 -11.25,6.94 -16.49,3.33 -2.19,-6.94 -0.98,-33.81 -1.42,-43.48 -0.92,-20.1 -3.08,-26.45 17.23,-26.32 15.55,0.11 43,-2.63 44.2,19.92 0.52,9.86 -3.47,9.39 -7.11,15.12l0 0zm-388.19 -30.46c6.51,-5.95 9.8,-4.12 17.17,-0.88 1.73,6.86 8.56,37.41 12.8,40.56 4.68,-1.83 8.62,-21.08 10.2,-26.74 4.17,-15.06 2.92,-18.22 18.59,-16.88 5.44,9.31 -1.83,21.22 -7.78,38.36 -2.45,7.08 -4.63,11.77 -7.39,18.44 -2.49,6.04 -2.54,13.58 -9.76,15.81 -14.18,4.37 -15.09,-8.57 -21.92,-28.63 -2.18,-6.38 -4.4,-12.82 -6.63,-19.23 -2.87,-8.22 -6.29,-10.96 -5.28,-20.81zm322.18 10.62l-33.88 0.03c-0.98,14.73 1.18,12.45 13.24,12.02 6.9,-0.25 15.58,-0.36 20.55,4.8 2.72,14.76 -23.04,9.17 -31.95,10.95 -1.85,4.44 -2.04,7.19 -1.83,12.08 12.03,1.32 29.35,-4.21 39.25,5.36 0.58,10.21 -5.43,10.61 -13.58,10.77 -52.36,1.04 -43.82,-0.17 -43.71,-30.46 0.08,-21.27 -4.11,-37.62 10.07,-40.04 10.05,-1.71 36.34,-1.97 45.43,2.19 0.47,5.38 -0.27,8.34 -3.59,12.3zm-454.3 80.38l643.27 0 0 -116.25 -643.27 0 0 116.25zm586.44 -54.85c2.93,1.68 6.44,1.74 9.95,1.75 0.43,-5.87 -0.78,-11.11 -5.76,-14.05 -4.96,2.8 -5.29,5.89 -4.19,12.3zm-484.98 2.94l11.02 0.99c-0.11,-6.2 -1.43,-12.88 -5.25,-17.14 -3.76,3.51 -6.22,10.42 -5.77,16.15l0 0zm112.22 0.04l12.2 0.94c0.15,-6.5 -1.43,-16.36 -6.08,-19.75 -1.7,2.13 -6.48,15.81 -6.12,18.81zm270.07 -13.87c28.45,5.88 31.05,-14.13 16.01,-14.88 -4.75,-0.23 -10.55,-1.16 -15.05,-0.15l-0.96 15.03zm-133.82 -14.42c-1.96,7.21 -1.46,26.02 -1.08,34.19 0.61,13.45 21.06,4.84 22.9,2.17 10.08,-14.67 3.2,-43.33 -21.82,-36.36z"/>
   <path fill="none" stroke-width="8.33" stroke-miterlimit="22.9256" d="M365.81 63.74c145.53,0 263.5,103.5 263.5,231.19 0,127.69 -117.97,231.19 -263.5,231.19 -145.54,0 -263.51,-103.5 -263.51,-231.19 0,-127.69 117.97,-231.19 263.51,-231.19zm-305.24 -24.86l627.84 0 0 624.94 -627.84 0 0 -624.94z"/>
  </g>
 </g>
</svg>
