<?xml version="1.0" encoding="UTF-8"?>
<!DOCTYPE svg PUBLIC "-//W3C//DTD SVG 1.1//EN" "http://www.w3.org/Graphics/SVG/1.1/DTD/svg11.dtd">
<!-- Creator: CorelDRAW 2020 (64-Bit) -->
<svg xmlns="http://www.w3.org/2000/svg" xml:space="preserve" width="2244px" height="741px" version="1.1" shape-rendering="geometricPrecision" text-rendering="geometricPrecision" image-rendering="optimizeQuality" fill-rule="evenodd" clip-rule="evenodd"
viewBox="0 0 2244 740.97"
 xmlns:xlink="http://www.w3.org/1999/xlink"
 xmlns:xodm="http://www.corel.com/coreldraw/odm/2003">
 <g id="Capa_x0020_1">
  <metadata id="CorelCorpID_0Corel-Layer"/>
  <path fill-rule="nonzero" d="M892.72 335.88l66.21 0 0 57.45 -100.8 0 0 -295.2 34.59 0 0 237.75zm178.39 -237.75l67.35 295.2 -37.32 0 -14.56 -63.28 -68.49 0 -14.33 63.28 -37.54 0 67.35 -295.2 37.54 0zm2.5 174.46l-21.16 -92.85 -21.16 92.85 42.32 0zm185.9 -174.46l37.55 0 -68.04 295.2 -38 0 -67.8 -295.2 37.54 0 49.38 220.68 49.37 -220.68zm127.2 0l67.35 295.2 -37.32 0 -14.56 -63.28 -68.49 0 -14.33 63.28 -37.55 0 67.35 -295.2 37.55 0zm2.5 174.46l-21.16 -92.85 -21.16 92.85 42.32 0zm143.12 -174.46l100.8 0 0 57.46 -66.21 0 0 53.3 58.25 0 0 57.45 -58.25 0 0 126.99 -34.59 0 0 -295.2zm191.82 0l67.35 295.2 -37.32 0 -14.56 -63.28 -68.49 0 -14.33 63.28 -37.55 0 67.35 -295.2 37.55 0zm2.5 174.46l-21.16 -92.85 -21.16 92.85 42.32 0zm145.17 63.29c7.28,0 14.41,-3.06 21.39,-9.16 6.98,-6.11 14.03,-16.38 21.16,-30.81l22.3 38.72c-8.95,21.09 -19.15,37.05 -30.6,47.88 -11.46,10.82 -23.25,16.24 -35.39,16.24 -10.92,0 -21.16,-4.1 -30.71,-12.29 -9.56,-8.18 -17.87,-19.22 -24.92,-33.1 -7.05,-13.87 -12.59,-30.04 -16.61,-48.5 -4.02,-18.46 -6.03,-38.1 -6.03,-58.92 0,-20.82 2.09,-40.38 6.26,-58.7 4.17,-18.32 9.82,-34.42 16.95,-48.3 7.13,-13.88 15.55,-24.85 25.26,-32.89 9.7,-8.05 20.02,-12.08 30.94,-12.08 10.16,0 19.84,3.47 29.01,10.41 9.18,6.94 18.17,18.46 26.97,34.56l-20.03 44.55c-6.37,-10.83 -12.4,-18.11 -18.09,-21.86 -5.69,-3.75 -11.64,-5.62 -17.86,-5.62 -6.22,0 -12.1,2.36 -17.63,7.08 -5.54,4.72 -10.36,11.1 -14.45,19.15 -4.1,8.05 -7.32,17.56 -9.67,28.52 -2.35,10.96 -3.53,22.69 -3.53,35.18 0,12.49 1.18,24.15 3.53,34.98 2.35,10.82 5.57,20.33 9.67,28.52 4.09,8.19 8.91,14.64 14.45,19.36 5.53,4.72 11.41,7.08 17.63,7.08zm140.85 -237.75l0 53.3 -12.06 0 0 189.03 12.06 0 0 52.87 -58.71 0 0 -52.87 12.06 0 0 -189.03 -12.06 0 0 -53.3 58.71 0zm55.74 237.75l66.22 0 0 57.45 -100.8 0 0 -295.2 34.58 0 0 237.75z"/>
  <path fill-rule="nonzero" d="M872.03 471.89l34.08 0 0 132.48 26.97 0 0 39.89 -61.05 0 0 -172.37zm189.06 172.37l-35.42 0 -5.72 -28.78 -35.95 0 -5.99 28.78 -34.72 0 39.79 -172.37 38.22 0 39.79 172.37zm-47.66 -59.76c-5.1,-25.66 -8.9,-50.07 -11.47,-73.26l-0.43 0c-2.72,23.85 -6.48,48.27 -11.35,73.26l23.25 0zm42.75 -112.61l35.49 0 18.57 76.16c3.53,15.07 5.91,27.94 7.17,38.6l0.47 0c1.11,-9.38 2.37,-17.05 3.72,-23.09l20.68 -91.67 36.41 0 -45.08 172.37 -31.58 0 -45.85 -172.37zm237.28 172.37l-35.42 0 -5.71 -28.78 -35.96 0 -5.98 28.78 -34.73 0 39.79 -172.37 38.22 0 39.79 172.37zm-47.66 -59.76c-5.1,-25.66 -8.9,-50.07 -11.47,-73.26l-0.42 0c-2.73,23.85 -6.49,48.27 -11.36,73.26l23.25 0zm64.89 -112.61l34.38 0 43.28 99.43 -1.22 -18.6 0 -80.83 34.07 0 0 172.37 -34.96 0 -42.4 -97.89 0.92 21.47 0 76.42 -34.07 0 0 -172.37zm142.78 0l31.81 0c22.02,0 38.79,7.18 50.27,21.64 11.43,14.41 17.18,35.48 17.18,63.2 0,20.98 -2.83,37.95 -8.48,50.86 -5.67,12.91 -13.58,22.26 -23.71,28.03 -10.17,5.77 -21.41,8.64 -33.69,8.64l-33.38 0 0 -172.37zm34.07 36.67l0 98.9c10.32,-1.02 17.65,-5.25 21.91,-12.61 4.26,-7.36 6.41,-19.48 6.41,-36.31 0,-10.01 -0.77,-18.47 -2.26,-25.39 -1.5,-6.92 -3.73,-12.25 -6.68,-16 -2.95,-3.75 -5.83,-6.04 -8.67,-6.92 -2.8,-0.88 -6.37,-1.41 -10.71,-1.67zm88.14 -36.67l68.92 0 0 36.67 -34.85 0 0 31.77 30.24 0 0 35.75 -30.24 0 0 31.38 35.08 0 0 36.8 -69.15 0 0 -172.37zm96.01 0l39.67 0c16.04,0 28.7,4.71 37.99,14.19 9.32,9.47 13.97,22.34 13.97,38.61 0,8.37 -1.77,16.44 -5.3,24.19 -3.53,7.8 -8.67,13.67 -15.39,17.63l27.21 77.75 -35.99 0 -27.55 -78.5 -0.54 0 0 78.5 -34.07 0 0 -172.37zm34.07 33.32l0 40.9c15.04,-0.31 22.6,-6.39 22.6,-18.21 0,-7.97 -1.76,-13.7 -5.26,-17.14 -3.45,-3.44 -9.24,-5.29 -17.34,-5.55zm84.53 -33.32l34.07 0 0 172.37 -34.07 0 0 -172.37zm172.33 172.37l-35.42 0 -5.72 -28.78 -35.95 0 -5.99 28.78 -34.72 0 39.79 -172.37 38.21 0 39.8 172.37zm-47.66 -59.76c-5.1,-25.66 -8.9,-50.07 -11.48,-73.26l-0.42 0c-2.72,23.85 -6.48,48.27 -11.35,73.26l23.25 0z"/>
  <path  d="M413.22 458.29c-4.46,1.93 -15.89,17.01 -31.56,10.72 -11.88,-4.76 -12.03,-22.99 -2.26,-29.65 5.79,-3.93 30.3,-7.76 29.3,-15.11 -0.9,-6.63 -13.2,-2.75 -16.73,-0.88 -5.89,3.14 -7.36,10.1 -14.4,9.19 -22.55,-2.93 22.43,-42.68 47.39,-24.22 6,4.44 6.65,25.83 9.37,35.58 1.95,7 2.42,13.85 -3.25,16.53 -9.62,4.55 -13.22,-1.69 -17.86,-2.16zm-71.27 -43.18l19.46 0.06c0.19,3.17 1.55,11.7 0.09,14.06l-10.21 1.99c0.31,9.8 6.88,36.87 1.97,43.14 -4.04,5.46 -20.6,7.36 -23.48,-8.58 -1.71,-9.48 -2.42,-27.39 -4.44,-34.5 -8.36,-3.81 -13.27,1.6 -12.45,-13.34l10.36 -2.11c0.13,-6.52 -0.47,-16.14 4.31,-19.1 11.03,-6.85 38.56,-7.01 30.12,9.52 -3.86,7.55 -16.24,-1.48 -15.73,8.86zm128.63 -10.69c-11.03,3.23 -11.61,27.78 1.13,29.51 11.19,1.52 9.93,-5.16 13.46,-9.34 3.87,-4.58 13.43,-4.55 15.86,0.67 9.24,19.84 -43.26,36.98 -57.73,17.87 -17.59,-23.25 2.78,-53.18 23.98,-56.94 12.4,-2.2 32.89,-1.38 34.01,11.55 1.61,18.63 -24.94,5 -30.71,6.68zm-84.17 -0.33c-2.15,-9.85 1.68,-7.86 7.16,-14.89 1.62,-2.07 9.43,-11.23 15.35,-5.62 2.8,2.65 0.09,6.7 -1.36,8.37 -7.61,8.8 -9.19,15.21 -21.15,12.14zm127.72 34.43c-5.21,-6.85 -5.38,-22.29 -6.85,-32.79 -2.09,-14.92 -8.32,-24.59 7.2,-26.29 17.61,-1.93 13.93,7.93 16.05,23.52 1.11,8.17 6.89,27.94 3.61,33.88l-20.01 1.68zm46.59 -78.99c3.32,14.22 4.65,30.68 7.22,45.8 2.62,15.44 10.4,35.88 -12.7,33.31 -12.22,-1.36 -11.56,-28.77 -13.23,-40.1 -1.45,-9.86 -11.01,-41.28 2.98,-41.28 8.66,0 8.25,0.89 15.73,2.27zm-49.02 -0.92c14.26,-3.93 16.48,16.07 5.31,18.06 -12.38,2.2 -22.35,-13.35 -5.31,-18.06zm-17.3 16c-17.11,0.21 -27.89,0.15 -42.73,6.27 -10.73,4.42 -16.73,21.52 -31.81,13.33 0.06,-8.27 3.31,-10.55 -3.2,-16.39 -17.88,-16.05 -41.87,12.94 -45.32,15.03 -3.07,-1.35 -7.18,-7.15 -13.43,-9.3 -3.8,-1.31 -17.45,-1.03 -22.19,-0.74 -15.49,0.94 -22.09,8.6 -22.09,24.74l-9.51 3.34 -0.62 22.56c11.82,8.85 11.4,0.82 13.67,19.06 4.1,32.9 5.86,39.16 31.69,35.7 5.42,-0.73 7.19,-2.49 11.33,-4.73 7.83,-4.23 2.5,-3.2 6.04,-10.78 42.3,14.75 20.87,6.93 62.56,-0.52 13.29,-2.37 10.14,-3.85 18.02,-8.29 10.98,-6.2 32.11,2.67 47.39,-3.72 7.42,-3.11 12.71,-9.59 15.31,-10.48 5.55,-1.9 19.03,0.48 25.79,-0.74 19.77,-3.57 30.64,3.4 43.83,-4.89 8.8,-5.54 0.03,-27.23 -1.57,-40.93 -4.97,-42.77 0.29,-51.34 -24.45,-53.79 -15.79,-1.57 -13.23,-0.03 -22.44,4.19 -7.29,-5.46 -18.11,-7.51 -28.67,-2.93 -12.03,5.21 -8.78,13.46 -7.6,24.01z"/>
  <path  d="M411.77 441.93c-10.73,-3.45 -30.42,4.18 -21.33,13.18 3.87,3.84 11.99,1.51 16.54,-0.37 7.22,-2.99 6.73,-4.51 4.79,-12.81zm-100.16 -113.28c4.77,0.49 16.8,-3.19 21.71,-4.82 -0.29,-2.09 -8.36,-26.55 -12.03,-28.4 -2.5,4.09 -9.55,28.26 -9.68,33.22zm242.07 -43.9c-1.04,-9.12 -5.07,-31.51 -12.25,-34.36 -1.88,5.47 -6.93,18.77 -8.31,24.18 -2.72,10.62 12.35,10.94 20.56,10.18zm-375.11 42.39c-1.55,24.27 -0.76,30.61 24.25,32.66 13.22,1.08 42.72,3.36 34.38,21.06 -9.44,20.02 -76.48,-4.51 -86.83,-16.62 -11.16,-13.06 -8.95,-85.91 -2.83,-104.6 6.63,-20.23 25.21,-4.09 29.16,12.97 3.72,16.12 2.96,37.53 1.87,54.53zm-29.8 -85.06c-22.36,9.74 -19.54,92.16 -14.11,117.42 3.85,17.86 17.43,27.16 37,31.42 18.13,3.94 42.95,10.22 62.81,7.04 18.25,-2.93 20.61,-30.89 4.59,-42.73 -14.36,-10.62 -47.17,-1.67 -49.65,-19.93 -2.84,-20.86 4.61,-43.62 -0.12,-66.2 -3.27,-15.6 -19.76,-36.06 -40.52,-27.02zm174.55 10.08c20.36,-5.01 25.2,19.18 30.89,33.9 6.07,15.71 14.05,30.8 19.32,46.03 7.81,22.6 -3,41.49 -22.56,26.66 -6.27,-4.76 -10.15,-13.85 -19.15,-13.14 -42.82,3.38 -32.06,49.78 -59,39.34 -15.58,-6.03 -0.76,-37.77 3.44,-48.7 6.07,-15.77 12.46,-31.06 18.67,-46.69 7.2,-18.09 9.24,-32.7 28.39,-37.4zm-1.37 -10.42c-36.74,6.27 -44.13,61.09 -56.95,96.48 -6.66,18.38 -20.46,43.27 -0.88,55.28 24.84,15.23 36.39,-5.7 45.18,-22.2 14.53,-27.28 33.49,4.93 50.74,4.79 22.57,-0.18 33.69,-22.7 25.92,-45.26 -10.68,-31.04 -26.44,-95.51 -64.01,-89.09zm212.71 -32.54c32.45,-7.59 42.79,57.66 51.85,84.6 3.67,10.92 19.07,43.86 7.79,51.02 -17.8,11.28 -25.61,-26.05 -32.29,-32.66 -4.88,-4.83 -18.16,-8.9 -27.28,-7.97 -13.08,1.32 -13.54,7.46 -18.49,16.65 -7.95,14.73 -37.92,13.3 -25.84,-18.65 6.32,-16.71 12.53,-32.79 19.26,-49.19 5.2,-12.67 12.2,-40.8 25,-43.8zm0.7 -11.92c-20.11,3.7 -28.35,25.64 -35.12,45.28 -6.68,19.38 -16.02,39.9 -21.48,58.19 -7.87,26.34 5.05,47.93 30.9,37.03 16.73,-7.06 31.02,-40.97 46.35,-12.47 4.64,8.62 7.48,20.46 14.05,25.79 6.68,5.42 24.41,7.74 32.69,2.13 14.56,-9.86 0.32,-45.96 -3.69,-62.88 -8.6,-36.24 -16.6,-101.73 -63.7,-93.07zm-103.07 98.04c11.74,-5.43 14.51,-65.19 33.51,-81.08 8.8,-7.36 20.89,-3.27 20.74,9.68 -0.17,15.04 -33.28,99.06 -40.81,110.18 -15.34,22.65 -37.58,-8.38 -43.4,-18.54 -9.16,-15.97 -15.86,-35.23 -21.55,-54.02 -9.97,-32.92 21.65,-39.39 30.75,-20.55 6.47,13.4 12.34,46.11 20.76,54.33zm-1.7 -38.6c-11.69,-12.16 -5.13,-47.59 -42.05,-35.95 -26.98,8.51 -25.62,27.07 -14.8,51.88 13.49,30.93 30.89,106.18 76.09,75.77 13.16,-8.86 42.72,-92.07 48.64,-114.81 7.1,-27.28 -17.7,-45.24 -39.49,-31.3 -15.68,10.02 -20.33,50.1 -28.39,54.41z"/>
  <path  d="M264.37 661.65c-5.4,2.57 -2.62,7.67 -7.55,11.33 -3.27,2.43 -11.33,3.9 -13.43,-0.58 -2.43,-5.18 14.52,-51.63 17.56,-59.54 3.7,-9.64 14.44,-19.15 22.6,-9.08 4.34,5.36 18.2,45.34 21.8,54.93 6.43,17.15 -9.65,20.28 -15.26,12.86 -3.2,-4.24 -2.05,-9.01 -7.95,-10.66 -4.26,-1.19 -13.85,-1.13 -17.77,0.74zm-98.39 -60.71c3.02,3.87 25.39,64 22.28,70.85 -11.1,13.6 -15.38,-4.17 -19.16,-10.72 -32.28,-4.16 -22.51,6.43 -30.68,13.01 -4.18,3.36 -12.57,3.13 -14.2,-2.9 -0.92,-3.4 3.21,-13.86 4.42,-17.69 3.53,-11.17 7.54,-23.14 11.83,-33.94 6.23,-15.65 6.84,-20.83 25.51,-18.61zm473.34 72.61c-5.07,0.78 -10.09,1.43 -13.91,-2.6 -3.03,-10.53 17.63,-61.3 24.16,-71.05 24.48,-1.52 15.74,2.92 24.5,19.52 3.79,7.19 9.59,26.93 12.85,36.11 3.12,8.77 4.5,10.27 -1.43,17.25 -13.27,2.33 -12.8,-3.09 -16.49,-14.08l-24.03 -0.68c-2.14,5.22 -2.12,10.79 -5.65,15.53zm-572.02 -71.4c4.8,-1.43 7.09,-1.49 11.95,0.1 10.4,11.2 0.23,44.31 5.5,56.34 9.06,4.47 40.15,-7.51 29.57,15.89 -7.03,2.12 -22.43,1.26 -30.27,1 -14.36,-0.49 -17.49,2.58 -19.09,-12.82 -1.32,-12.69 -3.3,-50.38 2.34,-60.51zm328.76 -0.35c13.08,-5.46 44.21,-0.98 52.11,12.91 9.45,16.65 6.11,40.62 -7.99,52.56 -8.13,6.89 -17.41,6.58 -27.71,6.59 -31.75,0.03 -23.88,-2.31 -24.71,-45.08 -0.23,-11.55 -2.97,-22.28 8.3,-26.98zm-38.88 39.64c4.03,-10.89 -1.23,-23.13 0.81,-34.13 1.78,-9.58 16.37,-10.92 18.65,-0.63 2.2,9.92 0.46,57.26 -2.35,67.4 -21.28,14.69 -31.27,-35.58 -43.59,-39.05 -1.17,8.62 5.84,47.67 -12.26,40.36 -10.12,-4.08 -6.09,-39.99 -6.04,-50 0.03,-6.72 -1.63,-19.2 4.62,-23.23 2.47,-1.59 8.42,-2.07 11.16,-1.53 4.55,0.91 14.55,20.1 17.33,24.54l7.67 12.19c2.41,5.03 -0.09,3.05 4,4.08zm259.61 -39.39c2.81,10.92 2.79,32.98 2.84,44.86 0.02,5.63 0.35,17.91 -1.42,22.76 -2.15,5.87 -11.61,7.34 -15.32,2.65 -5.06,-6.4 -2.64,-33.96 -3.28,-43.84 -0.96,-14.94 -3.72,-33.54 17.18,-26.43zm-32.73 34.43c0.33,1.94 11.53,33.49 0.17,38.74 -12.76,2.08 -13.55,-8.46 -14.62,-19.04 -0.53,-5.26 -0.76,-8.57 -6.22,-9.73 -3.97,-0.85 -11.27,-0.91 -14.88,0.81 -1.47,6.82 0.44,14.96 -2.05,21.68 -2.69,7.31 -11.62,7.17 -17.03,3.44 -2.26,-7.17 -1.01,-34.92 -1.47,-44.9 -0.95,-20.76 -3.18,-27.32 17.8,-27.18 16.06,0.11 44.4,-2.72 45.64,20.57 0.54,10.18 -3.58,9.7 -7.34,15.61zm-400.89 -31.45c6.72,-6.15 10.12,-4.26 17.73,-0.91 1.79,7.08 8.84,38.63 13.22,41.88 4.83,-1.88 8.9,-21.77 10.53,-27.61 4.31,-15.55 3.02,-18.82 19.2,-17.43 5.62,9.61 -1.89,21.91 -8.03,39.61 -2.53,7.31 -4.78,12.16 -7.63,19.05 -2.58,6.23 -2.63,14.02 -10.08,16.32 -14.65,4.52 -15.59,-8.85 -22.64,-29.56 -2.25,-6.59 -4.54,-13.24 -6.85,-19.86 -2.96,-8.49 -6.49,-11.32 -5.45,-21.49zm332.72 10.96l-34.99 0.04c-1.01,15.21 1.22,12.85 13.68,12.41 7.12,-0.26 16.08,-0.37 21.22,4.96 2.81,15.24 -23.8,9.47 -33,11.3 -1.91,4.59 -2.1,7.43 -1.89,12.48 12.43,1.36 30.31,-4.35 40.54,5.53 0.6,10.55 -5.61,10.96 -14.03,11.13 -54.07,1.07 -45.25,-0.18 -45.14,-31.46 0.08,-21.97 -4.24,-38.85 10.4,-41.35 10.38,-1.77 37.53,-2.03 46.92,2.26 0.48,5.56 -0.28,8.62 -3.71,12.7zm-469.16 83.01l664.31 0 0 -120.05 -664.31 0 0 120.05zm605.62 -56.64c3.03,1.73 6.65,1.8 10.28,1.81 0.44,-6.07 -0.81,-11.48 -5.95,-14.51 -5.12,2.89 -5.46,6.08 -4.33,12.7zm-500.84 3.04l11.38 1.02c-0.12,-6.4 -1.48,-13.3 -5.42,-17.7 -3.89,3.62 -6.43,10.76 -5.96,16.68zm115.89 0.04l12.6 0.97c0.15,-6.71 -1.48,-16.9 -6.28,-20.4 -1.76,2.2 -6.69,16.33 -6.32,19.43zm278.9 -14.33c29.39,6.08 32.07,-14.59 16.54,-15.36 -4.91,-0.24 -10.9,-1.2 -15.54,-0.16l-1 15.52zm-138.19 -14.89c-2.03,7.45 -1.51,26.87 -1.12,35.31 0.63,13.89 21.75,5 23.65,2.24 10.41,-15.15 3.3,-44.75 -22.53,-37.55z"/>
  <path fill="none" stroke-width="16.67" stroke-miterlimit="22.9256" d="M370.69 71.74c150.29,0 272.12,106.89 272.12,238.76 0,131.86 -121.83,238.75 -272.12,238.75 -150.3,0 -272.13,-106.89 -272.13,-238.75 0,-131.87 121.83,-238.76 272.13,-238.76zm-315.22 -25.67l648.37 0 0 645.38 -648.37 0 0 -645.38z"/>
 </g>
</svg>
